<svg xmlns="http://www.w3.org/2000/svg" width="810" height="280" viewBox="0 0 810 280">
  <g fill="#FA6C56" fill-rule="evenodd">
    <path d="M578.8911 150.0377C579.8851 153.3907 581.6601 156.4837 584.2161 159.3167 587.9471 163.4507 593.7431 165.5167 601.6071 165.5167 607.4551 165.5167 611.8401 164.2067 614.7641 161.5857 617.6881 158.9637 619.1491 155.9397 619.1491 152.5117 619.1491 149.6887 618.0911 147.2187 615.9741 145.1017 613.8561 142.9847 609.9751 141.3207 604.3291 140.1117L587.0901 136.1797C579.0241 134.3647 572.1691 131.9447 566.5231 128.9207 560.8771 125.8957 556.2401 122.3677 552.6101 118.3347 548.9811 114.3017 546.3591 109.8657 544.7461 105.0267 543.1331 100.1877 542.3271 95.1467 542.3271 89.9047 542.3271 83.0487 543.7381 76.5967 546.5611 70.5477 549.3841 64.4987 553.3661 59.2057 558.5081 54.6687 563.6501 50.1317 569.7491 46.5527 576.8061 43.9317 583.8631 41.3107 591.6261 39.9997 600.0951 39.9997 610.9831 39.9997 620.1571 41.5117 627.6181 44.5367 635.0781 47.5607 641.1781 51.3417 645.9161 55.8787 650.6551 60.4157 654.1331 65.2547 656.3511 70.3967 657.7251 73.5827 658.7751 76.7367 659.4291 79.5477 660.0821 82.3587 658.2361 85.1367 655.5021 85.6357 643.0831 87.9027 633.5871 89.6357 627.0131 90.8357 625.0691 91.1907 622.2591 90.4147 621.1431 86.9967 620.1361 83.9167 618.5141 81.1557 616.2761 78.7137 612.9491 75.0847 607.7571 73.2697 600.7001 73.2697 596.2641 73.2697 592.4331 74.4287 589.2071 76.7477 585.9811 79.0667 584.3671 82.2417 584.3671 86.2747 584.3671 89.5007 585.4761 92.0217 587.6941 93.8367 589.9121 95.6507 592.7351 96.8607 596.1631 97.4657L616.1251 101.3977C631.8521 104.6237 643.4971 110.5217 651.0581 119.0907 658.6191 127.6607 662.4001 137.4897 662.4001 148.5797 662.4001 155.0317 661.1901 161.2827 658.7701 167.3317 656.3511 173.3807 652.6211 178.7747 647.5801 183.5127 642.5391 188.2517 636.2881 192.0827 628.8281 195.0057 621.3671 197.9297 612.5961 199.3917 602.5151 199.3917 590.6181 199.3917 580.6881 197.7277 572.7231 194.4007 564.7591 191.0737 558.3571 186.9907 553.5171 182.1517 548.6781 177.3127 545.0991 172.1707 542.7801 166.7267 541.2981 163.2457 540.2481 160.0127 539.6311 157.0257 539.2831 155.3417 540.2101 151.9937 544.0161 151.3157 556.6921 149.0577 566.4211 147.3337 573.2011 146.1447 576.5801 145.5517 578.4191 148.4467 578.8911 150.0377M450 159.9999C427.909 159.9999 410 142.0909 410 119.9999 410 97.9089 427.909 79.9999 450 79.9999 472.091 79.9999 490 97.9089 490 119.9999 490 142.0909 472.091 159.9999 450 159.9999M525-.0000999999975L510-.0000999999975C498.954-.0000999999975 490 8.9539 490 19.9999L490 50.7029C478.233 43.8959 464.572 39.9999 450 39.9999 420.366 39.9999 394.496 56.1119 380.671 80.0539 386.643 92.0899 390 105.6529 390 119.9999 390 134.3469 386.643 147.9099 380.671 159.9459 394.496 183.8879 420.366 199.9999 450 199.9999 464.572 199.9999 478.233 196.1039 490 189.2969L490 194.9999C490 197.7609 492.239 199.9999 495 199.9999L525 199.9999C527.761 199.9999 530 197.7609 530 194.9999L530 4.9999C530 2.2389 527.761-.0000999999975 525-.0000999999975M231 159.946C236.971 147.91 240.329 134.347 240.329 120 240.329 105.653 236.971 92.09 231 80.054 244.825 56.112 270.695 40 300.329 40 344.511 40 380.329 75.817 380.329 120 380.329 164.183 344.511 200 300.329 200 270.695 200 244.825 183.888 231 159.946M300.329 160C322.42 160 340.329 142.091 340.329 120 340.329 97.908 322.42 80 300.329 80 278.237 80 260.329 97.908 260.329 120 260.329 142.091 278.237 160 300.329 160"/>
    <path d="M130 120C130 97.909 147.909 80 170 80 192.091 80 210 97.909 210 120 210 142.091 192.091 160 170 160 147.909 160 130 142.091 130 120zM90 120C90 164.183 125.817 200 170 200 199.455333 200 242.788667 173.333333 300 120 242.788667 66.6666667 199.455333 40 170 40 125.817 40 90 75.817 90 120zM5 199.9999L20 199.9999C31.046 199.9999 40 191.0459 40 179.9999L40 119.9999 80 119.9999C80 105.6319 83.367 92.0499 89.355 79.9999L40 79.9999C40 57.9089 57.909 39.9999 80 39.9999L95 39.9999C97.761 39.9999 100 37.7609 100 34.9999L100 4.9999C100 2.2389 97.761-.0000999999975 95-.0000999999975L80-.0000999999975C36.486-.0000999999975 1.086 34.7409.024 77.9999L0 77.9999 0 194.9999C0 197.7609 2.239 199.9999 5 199.9999M804.9827 40L789.9827 40C778.9367 40 769.9827 48.954 769.9827 60L769.9827 120C769.9827 142.091 760.2677 160 739.6497 160 719.0307 160 709.9827 142.091 709.9827 120L709.9827 45C709.9827 42.239 707.7437 40 704.9827 40L689.9827 40C678.9367 40 669.9827 48.954 669.9827 60L669.9827 120C669.9827 164.183 698.4117 200 739.6497 200 750.7507 200 760.9717 197.404 769.9827 192.748L769.9827 200C769.9827 222.091 751.7777 240 729.6867 240 720.1557 240 711.4387 236.666 704.5667 231.101 703.5547 230.282 700.7087 229.394 698.3167 231.5 692.7517 236.397 681.6497 246.184 675.6867 251.45 673.5927 253.3 673.2437 256.762 675.6867 259 689.9197 272.035 708.8657 280 729.6867 280 773.8697 280 809.9827 244.183 809.9827 200L809.9827 45C809.9827 42.239 807.7437 40 804.9827 40"/>
  </g>
</svg>
